<svg xmlns="http://www.w3.org/2000/svg" xmlns:xlink="http://www.w3.org/1999/xlink" version="1.1" id="Layer_1" x="0px" y="0px" style="enable-background:new 0 0 2260 2000;" xml:space="preserve" viewBox="614 556 1007 953">
<style type="text/css">
	.st0{fill:#0F0F17;}
	.st1{fill:#F5F9FC;}
	.st2{fill:none;stroke:#F3FAFF;stroke-width:7;stroke-miterlimit:10;}
	.st3{fill:none;stroke:#F5F9FC;stroke-width:7;stroke-miterlimit:10;}
</style>
<path class="st0" d="M1381.94,1509H853.06C721.03,1509,614,1401.97,614,1269.94V795.06C614,663.03,721.03,556,853.06,556h528.88  C1513.97,556,1621,663.03,1621,795.06v474.88C1621,1401.97,1513.97,1509,1381.94,1509z"/>
<g>
	<ellipse class="st1" cx="941.76" cy="1002.9" rx="14.29" ry="14.1"/>
	<ellipse class="st1" cx="815.89" cy="855.86" rx="6.8" ry="6.71"/>
	<ellipse class="st1" cx="859.09" cy="968.65" rx="6.8" ry="6.71"/>
	<ellipse class="st1" cx="753.29" cy="854.51" rx="6.8" ry="6.71"/>
	<ellipse class="st1" cx="774.38" cy="908.9" rx="7.48" ry="7.39"/>
	<ellipse class="st1" cx="718.59" cy="831.01" rx="7.48" ry="7.39"/>
	<ellipse class="st1" cx="891.41" cy="984.1" rx="8.85" ry="8.73"/>
	<ellipse class="st1" cx="1016.61" cy="945.16" rx="8.85" ry="8.73"/>
	<ellipse class="st1" cx="832.9" cy="950.53" rx="8.85" ry="8.73"/>
	<ellipse class="st1" cx="966.26" cy="886.07" rx="8.85" ry="8.73"/>
	<ellipse class="st1" cx="1016.61" cy="841.76" rx="8.85" ry="8.73"/>
	<ellipse class="st1" cx="864.87" cy="906.89" rx="5.44" ry="5.37"/>
	<ellipse class="st1" cx="859.43" cy="941.8" rx="5.44" ry="5.37"/>
	<ellipse class="st1" cx="979.18" cy="974.03" rx="5.44" ry="5.37"/>
	<line class="st2" x1="942.44" y1="999.54" x2="942.44" y2="840.41"/>
	<line class="st3" x1="868.96" y1="906.89" x2="942.44" y2="906.89"/>
	<line class="st3" x1="942.44" y1="945.16" x2="1015.93" y2="945.16"/>
	<line class="st3" x1="942.44" y1="841.76" x2="1015.93" y2="841.76"/>
	<line class="st3" x1="785.95" y1="888.76" x2="816.57" y2="888.76"/>
	<line class="st3" x1="860.79" y1="942.47" x2="891.41" y2="942.47"/>
	<line class="st3" x1="756.01" y1="855.19" x2="786.63" y2="855.19"/>
	<line class="st3" x1="721.31" y1="831.01" x2="851.27" y2="831.01"/>
	<line class="st3" x1="781.18" y1="908.9" x2="832.21" y2="908.9"/>
	<line class="st3" x1="891.41" y1="980.74" x2="891.41" y2="908.23"/>
	<line class="st3" x1="832.21" y1="872.64" x2="941.76" y2="872.64"/>
	<line class="st3" x1="832.9" y1="944.49" x2="832.9" y2="871.97"/>
	<line class="st3" x1="851.95" y1="871.97" x2="851.95" y2="812.21"/>
	<line class="st3" x1="966.26" y1="945.83" x2="966.26" y2="886.07"/>
	<line class="st3" x1="786.63" y1="890.77" x2="786.63" y2="831.01"/>
	<line class="st3" x1="815.2" y1="888.09" x2="815.2" y2="857.87"/>
	<line class="st3" x1="978.5" y1="974.03" x2="978.5" y2="943.81"/>
	<g>
		<ellipse class="st1" cx="941.76" cy="627.65" rx="14.29" ry="13.65"/>
		<ellipse class="st1" cx="815.89" cy="769.97" rx="6.8" ry="6.5"/>
		<ellipse class="st1" cx="753.29" cy="771.27" rx="6.8" ry="6.5"/>
		<ellipse class="st1" cx="774.38" cy="718.63" rx="7.48" ry="7.15"/>
		<ellipse class="st1" cx="718.59" cy="794.02" rx="7.48" ry="7.15"/>
		<ellipse class="st1" cx="891.41" cy="645.84" rx="8.85" ry="8.45"/>
		<ellipse class="st1" cx="1016.61" cy="683.54" rx="8.85" ry="8.45"/>
		<ellipse class="st1" cx="1073.54" cy="686.03" rx="8.85" ry="8.45"/>
		<ellipse class="st1" cx="832.9" cy="678.34" rx="8.85" ry="8.45"/>
		<ellipse class="st1" cx="966.26" cy="740.73" rx="8.85" ry="8.45"/>
		<ellipse class="st1" cx="993.26" cy="753.87" rx="8.85" ry="8.45"/>
		<ellipse class="st1" cx="1016.61" cy="783.62" rx="8.85" ry="8.45"/>
		<ellipse class="st1" cx="864.87" cy="720.58" rx="5.44" ry="5.2"/>
		<ellipse class="st1" cx="859.43" cy="686.79" rx="5.44" ry="5.2"/>
		<ellipse class="st1" cx="979.18" cy="655.59" rx="5.44" ry="5.2"/>
		<line class="st2" x1="942.44" y1="630.9" x2="942.44" y2="784.92"/>
		<line class="st3" x1="868.96" y1="720.58" x2="942.44" y2="720.58"/>
		<line class="st3" x1="942.44" y1="683.54" x2="1015.93" y2="683.54"/>
		<line class="st3" x1="999.7" y1="753.62" x2="1073.18" y2="753.62"/>
		<line class="st3" x1="942.44" y1="783.62" x2="1015.93" y2="783.62"/>
		<line class="st3" x1="785.95" y1="738.13" x2="816.57" y2="738.13"/>
		<line class="st3" x1="860.79" y1="686.14" x2="891.41" y2="686.14"/>
		<line class="st3" x1="756.01" y1="770.62" x2="786.63" y2="770.62"/>
		<line class="st3" x1="721.31" y1="794.02" x2="851.27" y2="794.02"/>
		<line class="st3" x1="781.18" y1="718.63" x2="832.21" y2="718.63"/>
		<line class="st3" x1="891.41" y1="649.09" x2="891.41" y2="719.28"/>
		<line class="st3" x1="832.21" y1="753.73" x2="941.76" y2="753.73"/>
		<line class="st3" x1="850.58" y1="811.77" x2="1074.06" y2="811.67"/>
		<line class="st3" x1="832.9" y1="684.19" x2="832.9" y2="754.38"/>
		<line class="st3" x1="851.95" y1="754.38" x2="851.95" y2="812.21"/>
		<line class="st3" x1="966.26" y1="682.89" x2="966.26" y2="740.73"/>
		<line class="st3" x1="1073.52" y1="692.85" x2="1073.52" y2="813"/>
		<line class="st3" x1="786.63" y1="736.18" x2="786.63" y2="794.02"/>
		<line class="st3" x1="815.2" y1="738.78" x2="815.2" y2="768.02"/>
		<line class="st3" x1="978.5" y1="655.59" x2="978.5" y2="684.84"/>
	</g>
	<line class="st3" x1="792.66" y1="1008.24" x2="792.66" y2="910.42"/>
	<line class="st3" x1="792.74" y1="1006.6" x2="860.18" y2="1006.6"/>
	<line class="st3" x1="859.64" y1="1005.26" x2="859.64" y2="975.05"/>
</g>
<g>
	<ellipse class="st1" cx="1260.93" cy="1000.9" rx="15.49" ry="14.1"/>
	<ellipse class="st1" cx="1397.4" cy="853.86" rx="7.38" ry="6.71"/>
	<ellipse class="st1" cx="1350.56" cy="966.65" rx="7.38" ry="6.71"/>
	<ellipse class="st1" cx="1465.27" cy="852.51" rx="7.38" ry="6.71"/>
	<ellipse class="st1" cx="1442.4" cy="906.9" rx="8.11" ry="7.39"/>
	<ellipse class="st1" cx="1502.89" cy="829.01" rx="8.11" ry="7.39"/>
	<ellipse class="st1" cx="1315.52" cy="982.1" rx="9.59" ry="8.73"/>
	<ellipse class="st1" cx="1179.79" cy="943.16" rx="9.59" ry="8.73"/>
	<ellipse class="st1" cx="1378.96" cy="948.53" rx="9.59" ry="8.73"/>
	<ellipse class="st1" cx="1234.38" cy="884.07" rx="9.59" ry="8.73"/>
	<ellipse class="st1" cx="1179.79" cy="839.76" rx="9.59" ry="8.73"/>
	<ellipse class="st1" cx="1344.29" cy="904.89" rx="5.9" ry="5.37"/>
	<ellipse class="st1" cx="1350.19" cy="939.8" rx="5.9" ry="5.37"/>
	<ellipse class="st1" cx="1220.36" cy="972.03" rx="5.9" ry="5.37"/>
	<line class="st2" x1="1260.2" y1="997.54" x2="1260.2" y2="838.41"/>
	<line class="st3" x1="1339.86" y1="904.89" x2="1260.2" y2="904.89"/>
	<line class="st3" x1="1260.2" y1="943.16" x2="1180.53" y2="943.16"/>
	<line class="st3" x1="1260.2" y1="839.76" x2="1180.53" y2="839.76"/>
	<line class="st3" x1="1429.86" y1="886.76" x2="1396.66" y2="886.76"/>
	<line class="st3" x1="1348.72" y1="940.47" x2="1315.52" y2="940.47"/>
	<line class="st3" x1="1462.31" y1="853.19" x2="1429.12" y2="853.19"/>
	<line class="st3" x1="1499.94" y1="829.01" x2="1359.04" y2="829.01"/>
	<line class="st3" x1="1435.02" y1="906.9" x2="1379.7" y2="906.9"/>
	<line class="st3" x1="1315.52" y1="978.74" x2="1315.52" y2="906.23"/>
	<line class="st3" x1="1379.7" y1="870.64" x2="1260.93" y2="870.64"/>
	<line class="st3" x1="1378.96" y1="942.49" x2="1378.96" y2="869.97"/>
	<line class="st3" x1="1358.3" y1="869.97" x2="1358.3" y2="810.21"/>
	<line class="st3" x1="1234.38" y1="943.83" x2="1234.38" y2="884.07"/>
	<line class="st3" x1="1429.12" y1="888.77" x2="1429.12" y2="829.01"/>
	<line class="st3" x1="1398.14" y1="886.09" x2="1398.14" y2="855.87"/>
	<line class="st3" x1="1221.1" y1="972.03" x2="1221.1" y2="941.81"/>
	<g>
		<ellipse class="st1" cx="1260.93" cy="625.65" rx="15.49" ry="13.65"/>
		<ellipse class="st1" cx="1397.4" cy="767.97" rx="7.38" ry="6.5"/>
		<ellipse class="st1" cx="1465.27" cy="769.27" rx="7.38" ry="6.5"/>
		<ellipse class="st1" cx="1442.4" cy="716.63" rx="8.11" ry="7.15"/>
		<ellipse class="st1" cx="1502.89" cy="792.02" rx="8.11" ry="7.15"/>
		<ellipse class="st1" cx="1315.52" cy="643.84" rx="9.59" ry="8.45"/>
		<ellipse class="st1" cx="1179.79" cy="681.54" rx="9.59" ry="8.45"/>
		<ellipse class="st1" cx="1118.07" cy="684.03" rx="9.59" ry="8.45"/>
		<ellipse class="st1" cx="1378.96" cy="676.34" rx="9.59" ry="8.45"/>
		<ellipse class="st1" cx="1234.38" cy="738.73" rx="9.59" ry="8.45"/>
		<ellipse class="st1" cx="1205.1" cy="751.87" rx="9.59" ry="8.45"/>
		<ellipse class="st1" cx="1179.79" cy="781.62" rx="9.59" ry="8.45"/>
		<ellipse class="st1" cx="1344.29" cy="718.58" rx="5.9" ry="5.2"/>
		<ellipse class="st1" cx="1350.19" cy="684.79" rx="5.9" ry="5.2"/>
		<ellipse class="st1" cx="1220.36" cy="653.59" rx="5.9" ry="5.2"/>
		<line class="st2" x1="1260.2" y1="628.9" x2="1260.2" y2="782.92"/>
		<line class="st3" x1="1339.86" y1="718.58" x2="1260.2" y2="718.58"/>
		<line class="st3" x1="1260.2" y1="681.54" x2="1180.53" y2="681.54"/>
		<line class="st3" x1="1198.13" y1="751.62" x2="1118.46" y2="751.62"/>
		<line class="st3" x1="1260.2" y1="781.62" x2="1180.53" y2="781.62"/>
		<line class="st3" x1="1429.86" y1="736.13" x2="1396.66" y2="736.13"/>
		<line class="st3" x1="1348.72" y1="684.14" x2="1315.52" y2="684.14"/>
		<line class="st3" x1="1462.31" y1="768.62" x2="1429.12" y2="768.62"/>
		<line class="st3" x1="1499.94" y1="792.02" x2="1359.04" y2="792.02"/>
		<line class="st3" x1="1435.02" y1="716.63" x2="1379.7" y2="716.63"/>
		<line class="st3" x1="1315.52" y1="647.09" x2="1315.52" y2="717.28"/>
		<line class="st3" x1="1379.7" y1="751.73" x2="1260.93" y2="751.73"/>
		<line class="st3" x1="1359.79" y1="809.77" x2="1117.5" y2="809.67"/>
		<line class="st3" x1="1378.96" y1="682.19" x2="1378.96" y2="752.38"/>
		<line class="st3" x1="1358.3" y1="752.38" x2="1358.3" y2="810.21"/>
		<line class="st3" x1="1234.38" y1="680.89" x2="1234.38" y2="738.73"/>
		<line class="st3" x1="1118.09" y1="690.85" x2="1118.09" y2="811"/>
		<line class="st3" x1="1429.12" y1="734.18" x2="1429.12" y2="792.02"/>
		<line class="st3" x1="1398.14" y1="736.78" x2="1398.14" y2="766.02"/>
		<line class="st3" x1="1221.1" y1="653.59" x2="1221.1" y2="682.84"/>
	</g>
	<line class="st3" x1="1422.58" y1="1006.24" x2="1422.58" y2="908.42"/>
	<line class="st3" x1="1422.5" y1="1004.6" x2="1349.38" y2="1004.6"/>
	<line class="st3" x1="1349.97" y1="1003.26" x2="1349.97" y2="973.05"/>
</g>
<g>
	<ellipse class="st1" cx="1261.93" cy="1039.1" rx="15.49" ry="14.1"/>
	<ellipse class="st1" cx="1398.4" cy="1186.14" rx="7.38" ry="6.71"/>
	<ellipse class="st1" cx="1351.56" cy="1073.35" rx="7.38" ry="6.71"/>
	<ellipse class="st1" cx="1466.27" cy="1187.49" rx="7.38" ry="6.71"/>
	<ellipse class="st1" cx="1443.4" cy="1133.1" rx="8.11" ry="7.39"/>
	<ellipse class="st1" cx="1503.89" cy="1210.99" rx="8.11" ry="7.39"/>
	<ellipse class="st1" cx="1316.52" cy="1057.9" rx="9.59" ry="8.73"/>
	<ellipse class="st1" cx="1180.79" cy="1096.84" rx="9.59" ry="8.73"/>
	<ellipse class="st1" cx="1379.96" cy="1091.47" rx="9.59" ry="8.73"/>
	<ellipse class="st1" cx="1235.38" cy="1155.93" rx="9.59" ry="8.73"/>
	<ellipse class="st1" cx="1180.79" cy="1200.24" rx="9.59" ry="8.73"/>
	<ellipse class="st1" cx="1345.29" cy="1135.11" rx="5.9" ry="5.37"/>
	<ellipse class="st1" cx="1351.19" cy="1100.2" rx="5.9" ry="5.37"/>
	<ellipse class="st1" cx="1221.36" cy="1067.97" rx="5.9" ry="5.37"/>
	<line class="st2" x1="1261.2" y1="1042.46" x2="1261.2" y2="1201.59"/>
	<line class="st3" x1="1340.86" y1="1135.11" x2="1261.2" y2="1135.11"/>
	<line class="st3" x1="1261.2" y1="1096.84" x2="1181.53" y2="1096.84"/>
	<line class="st3" x1="1261.2" y1="1200.24" x2="1181.53" y2="1200.24"/>
	<line class="st3" x1="1430.86" y1="1153.24" x2="1397.66" y2="1153.24"/>
	<line class="st3" x1="1349.72" y1="1099.53" x2="1316.52" y2="1099.53"/>
	<line class="st3" x1="1463.31" y1="1186.81" x2="1430.12" y2="1186.81"/>
	<line class="st3" x1="1500.94" y1="1210.99" x2="1360.04" y2="1210.99"/>
	<line class="st3" x1="1436.02" y1="1133.1" x2="1380.7" y2="1133.1"/>
	<line class="st3" x1="1316.52" y1="1061.26" x2="1316.52" y2="1133.77"/>
	<line class="st3" x1="1380.7" y1="1169.36" x2="1261.93" y2="1169.36"/>
	<line class="st3" x1="1379.96" y1="1097.51" x2="1379.96" y2="1170.03"/>
	<line class="st3" x1="1359.3" y1="1170.03" x2="1359.3" y2="1229.79"/>
	<line class="st3" x1="1235.38" y1="1096.17" x2="1235.38" y2="1155.93"/>
	<line class="st3" x1="1430.12" y1="1151.23" x2="1430.12" y2="1210.99"/>
	<line class="st3" x1="1399.14" y1="1153.91" x2="1399.14" y2="1184.13"/>
	<line class="st3" x1="1222.1" y1="1067.97" x2="1222.1" y2="1098.19"/>
	<g>
		<ellipse class="st1" cx="1261.93" cy="1414.35" rx="15.49" ry="13.65"/>
		<ellipse class="st1" cx="1398.4" cy="1272.03" rx="7.38" ry="6.5"/>
		<ellipse class="st1" cx="1466.27" cy="1270.73" rx="7.38" ry="6.5"/>
		<ellipse class="st1" cx="1443.4" cy="1323.37" rx="8.11" ry="7.15"/>
		<ellipse class="st1" cx="1503.89" cy="1247.98" rx="8.11" ry="7.15"/>
		<ellipse class="st1" cx="1316.52" cy="1396.16" rx="9.59" ry="8.45"/>
		<ellipse class="st1" cx="1180.79" cy="1358.46" rx="9.59" ry="8.45"/>
		<ellipse class="st1" cx="1119.07" cy="1355.97" rx="9.59" ry="8.45"/>
		<ellipse class="st1" cx="1379.96" cy="1363.66" rx="9.59" ry="8.45"/>
		<ellipse class="st1" cx="1235.38" cy="1301.27" rx="9.59" ry="8.45"/>
		<ellipse class="st1" cx="1206.1" cy="1288.13" rx="9.59" ry="8.45"/>
		<ellipse class="st1" cx="1180.79" cy="1258.38" rx="9.59" ry="8.45"/>
		<ellipse class="st1" cx="1345.29" cy="1321.42" rx="5.9" ry="5.2"/>
		<ellipse class="st1" cx="1351.19" cy="1355.21" rx="5.9" ry="5.2"/>
		<ellipse class="st1" cx="1221.36" cy="1386.41" rx="5.9" ry="5.2"/>
		<line class="st2" x1="1261.2" y1="1411.1" x2="1261.2" y2="1257.08"/>
		<line class="st3" x1="1340.86" y1="1321.42" x2="1261.2" y2="1321.42"/>
		<line class="st3" x1="1261.2" y1="1358.46" x2="1181.53" y2="1358.46"/>
		<line class="st3" x1="1199.13" y1="1288.38" x2="1119.46" y2="1288.38"/>
		<line class="st3" x1="1261.2" y1="1258.38" x2="1181.53" y2="1258.38"/>
		<line class="st3" x1="1430.86" y1="1303.87" x2="1397.66" y2="1303.87"/>
		<line class="st3" x1="1349.72" y1="1355.86" x2="1316.52" y2="1355.86"/>
		<line class="st3" x1="1463.31" y1="1271.38" x2="1430.12" y2="1271.38"/>
		<line class="st3" x1="1500.94" y1="1247.98" x2="1360.04" y2="1247.98"/>
		<line class="st3" x1="1436.02" y1="1323.37" x2="1380.7" y2="1323.37"/>
		<line class="st3" x1="1316.52" y1="1392.91" x2="1316.52" y2="1322.72"/>
		<line class="st3" x1="1380.7" y1="1288.27" x2="1261.93" y2="1288.27"/>
		<line class="st3" x1="1360.79" y1="1230.23" x2="1118.5" y2="1230.33"/>
		<line class="st3" x1="1379.96" y1="1357.81" x2="1379.96" y2="1287.63"/>
		<line class="st3" x1="1359.3" y1="1287.63" x2="1359.3" y2="1229.79"/>
		<line class="st3" x1="1235.38" y1="1359.11" x2="1235.38" y2="1301.27"/>
		<line class="st3" x1="1119.09" y1="1349.15" x2="1119.09" y2="1229"/>
		<line class="st3" x1="1430.12" y1="1305.82" x2="1430.12" y2="1247.98"/>
		<line class="st3" x1="1399.14" y1="1303.22" x2="1399.14" y2="1273.98"/>
		<line class="st3" x1="1222.1" y1="1386.41" x2="1222.1" y2="1357.16"/>
	</g>
	<line class="st3" x1="1423.58" y1="1033.76" x2="1423.58" y2="1131.58"/>
	<line class="st3" x1="1423.5" y1="1035.4" x2="1350.38" y2="1035.4"/>
	<line class="st3" x1="1350.97" y1="1036.74" x2="1350.97" y2="1066.95"/>
</g>
<g>
	<ellipse class="st1" cx="945.18" cy="1041.1" rx="15.37" ry="14.1"/>
	<ellipse class="st1" cx="809.74" cy="1188.14" rx="7.32" ry="6.71"/>
	<ellipse class="st1" cx="856.24" cy="1075.35" rx="7.32" ry="6.71"/>
	<ellipse class="st1" cx="742.39" cy="1189.49" rx="7.32" ry="6.71"/>
	<ellipse class="st1" cx="765.09" cy="1135.1" rx="8.05" ry="7.39"/>
	<ellipse class="st1" cx="705.05" cy="1212.99" rx="8.05" ry="7.39"/>
	<ellipse class="st1" cx="891.01" cy="1059.9" rx="9.52" ry="8.73"/>
	<ellipse class="st1" cx="1025.71" cy="1098.84" rx="9.52" ry="8.73"/>
	<ellipse class="st1" cx="828.05" cy="1093.47" rx="9.52" ry="8.73"/>
	<ellipse class="st1" cx="971.54" cy="1157.93" rx="9.52" ry="8.73"/>
	<ellipse class="st1" cx="1025.71" cy="1202.24" rx="9.52" ry="8.73"/>
	<ellipse class="st1" cx="862.45" cy="1137.11" rx="5.86" ry="5.37"/>
	<ellipse class="st1" cx="856.6" cy="1102.2" rx="5.86" ry="5.37"/>
	<ellipse class="st1" cx="985.45" cy="1069.97" rx="5.86" ry="5.37"/>
	<line class="st2" x1="945.91" y1="1044.46" x2="945.91" y2="1203.59"/>
	<line class="st3" x1="866.85" y1="1137.11" x2="945.91" y2="1137.11"/>
	<line class="st3" x1="945.91" y1="1098.84" x2="1024.98" y2="1098.84"/>
	<line class="st3" x1="945.91" y1="1202.24" x2="1024.98" y2="1202.24"/>
	<line class="st3" x1="777.53" y1="1155.24" x2="810.48" y2="1155.24"/>
	<line class="st3" x1="858.06" y1="1101.53" x2="891.01" y2="1101.53"/>
	<line class="st3" x1="745.32" y1="1188.81" x2="778.26" y2="1188.81"/>
	<line class="st3" x1="707.98" y1="1212.99" x2="847.81" y2="1212.99"/>
	<line class="st3" x1="772.41" y1="1135.1" x2="827.31" y2="1135.1"/>
	<line class="st3" x1="891.01" y1="1063.26" x2="891.01" y2="1135.77"/>
	<line class="st3" x1="827.31" y1="1171.36" x2="945.18" y2="1171.36"/>
	<line class="st3" x1="828.05" y1="1099.51" x2="828.05" y2="1172.03"/>
	<line class="st3" x1="848.54" y1="1172.03" x2="848.54" y2="1231.79"/>
	<line class="st3" x1="971.54" y1="1098.17" x2="971.54" y2="1157.93"/>
	<line class="st3" x1="778.26" y1="1153.23" x2="778.26" y2="1212.99"/>
	<line class="st3" x1="809.01" y1="1155.91" x2="809.01" y2="1186.13"/>
	<line class="st3" x1="984.71" y1="1069.97" x2="984.71" y2="1100.19"/>
	<g>
		<ellipse class="st1" cx="945.18" cy="1416.35" rx="15.37" ry="13.65"/>
		<ellipse class="st1" cx="809.74" cy="1274.03" rx="7.32" ry="6.5"/>
		<ellipse class="st1" cx="742.39" cy="1272.73" rx="7.32" ry="6.5"/>
		<ellipse class="st1" cx="765.09" cy="1325.37" rx="8.05" ry="7.15"/>
		<ellipse class="st1" cx="705.05" cy="1249.98" rx="8.05" ry="7.15"/>
		<ellipse class="st1" cx="891.01" cy="1398.16" rx="9.52" ry="8.45"/>
		<ellipse class="st1" cx="1025.71" cy="1360.46" rx="9.52" ry="8.45"/>
		<ellipse class="st1" cx="1086.97" cy="1357.97" rx="9.52" ry="8.45"/>
		<ellipse class="st1" cx="828.05" cy="1365.66" rx="9.52" ry="8.45"/>
		<ellipse class="st1" cx="971.54" cy="1303.27" rx="9.52" ry="8.45"/>
		<ellipse class="st1" cx="1000.59" cy="1290.13" rx="9.52" ry="8.45"/>
		<ellipse class="st1" cx="1025.71" cy="1260.38" rx="9.52" ry="8.45"/>
		<ellipse class="st1" cx="862.45" cy="1323.42" rx="5.86" ry="5.2"/>
		<ellipse class="st1" cx="856.6" cy="1357.21" rx="5.86" ry="5.2"/>
		<ellipse class="st1" cx="985.45" cy="1388.41" rx="5.86" ry="5.2"/>
		<line class="st2" x1="945.91" y1="1413.1" x2="945.91" y2="1259.08"/>
		<line class="st3" x1="866.85" y1="1323.42" x2="945.91" y2="1323.42"/>
		<line class="st3" x1="945.91" y1="1360.46" x2="1024.98" y2="1360.46"/>
		<line class="st3" x1="1007.52" y1="1290.38" x2="1086.58" y2="1290.38"/>
		<line class="st3" x1="945.91" y1="1260.38" x2="1024.98" y2="1260.38"/>
		<line class="st3" x1="777.53" y1="1305.87" x2="810.48" y2="1305.87"/>
		<line class="st3" x1="858.06" y1="1357.86" x2="891.01" y2="1357.86"/>
		<line class="st3" x1="745.32" y1="1273.38" x2="778.26" y2="1273.38"/>
		<line class="st3" x1="707.98" y1="1249.98" x2="847.81" y2="1249.98"/>
		<line class="st3" x1="772.41" y1="1325.37" x2="827.31" y2="1325.37"/>
		<line class="st3" x1="891.01" y1="1394.91" x2="891.01" y2="1324.72"/>
		<line class="st3" x1="827.31" y1="1290.27" x2="945.18" y2="1290.27"/>
		<line class="st3" x1="847.07" y1="1232.23" x2="1087.53" y2="1232.33"/>
		<line class="st3" x1="828.05" y1="1359.81" x2="828.05" y2="1289.63"/>
		<line class="st3" x1="848.54" y1="1289.63" x2="848.54" y2="1231.79"/>
		<line class="st3" x1="971.54" y1="1361.11" x2="971.54" y2="1303.27"/>
		<line class="st3" x1="1086.95" y1="1351.15" x2="1086.95" y2="1231"/>
		<line class="st3" x1="778.26" y1="1307.82" x2="778.26" y2="1249.98"/>
		<line class="st3" x1="809.01" y1="1305.22" x2="809.01" y2="1275.98"/>
		<line class="st3" x1="984.71" y1="1388.41" x2="984.71" y2="1359.16"/>
	</g>
	<line class="st3" x1="784.75" y1="1035.76" x2="784.75" y2="1133.58"/>
	<line class="st3" x1="784.84" y1="1037.4" x2="857.4" y2="1037.4"/>
	<line class="st3" x1="856.82" y1="1038.74" x2="856.82" y2="1068.95"/>
</g>
</svg>